<?xml version="1.0" encoding="UTF-8" standalone="no"?>
<!DOCTYPE svg PUBLIC "-//W3C//DTD SVG 1.1//EN"
 "http://www.w3.org/Graphics/SVG/1.1/DTD/svg11.dtd">
<!-- Generated by graphviz version 2.43.0 (0)
 -->
<!-- Title: cgroup_tree Pages: 1 -->
<svg width="3647pt" height="340pt"
 viewBox="0.00 0.00 3647.00 340.00" xmlns="http://www.w3.org/2000/svg" xmlns:xlink="http://www.w3.org/1999/xlink">
<g id="graph0" class="graph" transform="scale(1 1) rotate(0) translate(4 336)">
<title>cgroup_tree</title>
<polygon fill="white" stroke="transparent" points="-4,4 -4,-336 3643,-336 3643,4 -4,4"/>
<!-- cgroup -->
<g id="node1" class="node">
<title>cgroup</title>
<polygon fill="lightblue" stroke="black" points="750.5,-332 684.5,-332 684.5,-296 750.5,-296 750.5,-332"/>
<text text-anchor="middle" x="717.5" y="-310.3" font-family="Times,serif" font-size="14.00">cgroup</text>
</g>
<!-- sys&#45;fs&#45;fuse&#45;connections.mount -->
<g id="node2" class="node">
<title>sys&#45;fs&#45;fuse&#45;connections.mount</title>
<polygon fill="lightblue" stroke="black" points="231,-260 0,-260 0,-222 231,-222 231,-260"/>
<text text-anchor="middle" x="115.5" y="-244.8" font-family="Times,serif" font-size="14.00">sys&#45;fs&#45;fuse&#45;connections.mount</text>
<text text-anchor="middle" x="115.5" y="-229.8" font-family="Times,serif" font-size="14.00">(mem: max)</text>
</g>
<!-- cgroup&#45;&gt;sys&#45;fs&#45;fuse&#45;connections.mount -->
<g id="edge1" class="edge">
<title>cgroup&#45;&gt;sys&#45;fs&#45;fuse&#45;connections.mount</title>
<path fill="none" stroke="black" d="M684.49,-309.7C608.41,-302.03 414.61,-282.02 241.32,-260.08"/>
<polygon fill="black" stroke="black" points="241.62,-256.59 231.26,-258.8 240.74,-263.54 241.62,-256.59"/>
</g>
<!-- sys&#45;kernel&#45;debug.mount -->
<g id="node3" class="node">
<title>sys&#45;kernel&#45;debug.mount</title>
<polygon fill="lightblue" stroke="black" points="437.5,-260 249.5,-260 249.5,-222 437.5,-222 437.5,-260"/>
<text text-anchor="middle" x="343.5" y="-244.8" font-family="Times,serif" font-size="14.00">sys&#45;kernel&#45;debug.mount</text>
<text text-anchor="middle" x="343.5" y="-229.8" font-family="Times,serif" font-size="14.00">(mem: max)</text>
</g>
<!-- cgroup&#45;&gt;sys&#45;kernel&#45;debug.mount -->
<g id="edge2" class="edge">
<title>cgroup&#45;&gt;sys&#45;kernel&#45;debug.mount</title>
<path fill="none" stroke="black" d="M684.31,-306.7C631.76,-296.72 527.23,-276.88 447.71,-261.78"/>
<polygon fill="black" stroke="black" points="448.13,-258.3 437.66,-259.87 446.83,-265.18 448.13,-258.3"/>
</g>
<!-- dev&#45;mqueue.mount -->
<g id="node4" class="node">
<title>dev&#45;mqueue.mount</title>
<polygon fill="lightblue" stroke="black" points="609.5,-260 455.5,-260 455.5,-222 609.5,-222 609.5,-260"/>
<text text-anchor="middle" x="532.5" y="-244.8" font-family="Times,serif" font-size="14.00">dev&#45;mqueue.mount</text>
<text text-anchor="middle" x="532.5" y="-229.8" font-family="Times,serif" font-size="14.00">(mem: max)</text>
</g>
<!-- cgroup&#45;&gt;dev&#45;mqueue.mount -->
<g id="edge3" class="edge">
<title>cgroup&#45;&gt;dev&#45;mqueue.mount</title>
<path fill="none" stroke="black" d="M684.43,-300.31C657.96,-290.15 620.24,-275.67 589,-263.68"/>
<polygon fill="black" stroke="black" points="590.13,-260.37 579.54,-260.05 587.62,-266.9 590.13,-260.37"/>
</g>
<!-- user.slice -->
<g id="node5" class="node">
<title>user.slice</title>
<polygon fill="lightblue" stroke="black" points="729,-260 628,-260 628,-222 729,-222 729,-260"/>
<text text-anchor="middle" x="678.5" y="-244.8" font-family="Times,serif" font-size="14.00">user.slice</text>
<text text-anchor="middle" x="678.5" y="-229.8" font-family="Times,serif" font-size="14.00">(mem: max)</text>
</g>
<!-- cgroup&#45;&gt;user.slice -->
<g id="edge4" class="edge">
<title>cgroup&#45;&gt;user.slice</title>
<path fill="none" stroke="black" d="M708.06,-295.81C703.64,-287.77 698.28,-278 693.34,-269.01"/>
<polygon fill="black" stroke="black" points="696.28,-267.1 688.4,-260.02 690.14,-270.47 696.28,-267.1"/>
</g>
<!-- init.scope -->
<g id="node9" class="node">
<title>init.scope</title>
<polygon fill="lightblue" stroke="black" points="669,-38 568,-38 568,0 669,0 669,-38"/>
<text text-anchor="middle" x="618.5" y="-22.8" font-family="Times,serif" font-size="14.00">init.scope</text>
<text text-anchor="middle" x="618.5" y="-7.8" font-family="Times,serif" font-size="14.00">(mem: max)</text>
</g>
<!-- cgroup&#45;&gt;init.scope -->
<g id="edge12" class="edge">
<title>cgroup&#45;&gt;init.scope</title>
<path fill="none" stroke="black" d="M725.59,-295.95C744.11,-254.22 784.52,-145.18 738.5,-74 725.04,-53.18 701.44,-40.31 678.7,-32.39"/>
<polygon fill="black" stroke="black" points="679.63,-29.02 669.04,-29.29 677.49,-35.68 679.63,-29.02"/>
</g>
<!-- sys&#45;kernel&#45;tracing.mount -->
<g id="node12" class="node">
<title>sys&#45;kernel&#45;tracing.mount</title>
<polygon fill="lightblue" stroke="black" points="980,-260 785,-260 785,-222 980,-222 980,-260"/>
<text text-anchor="middle" x="882.5" y="-244.8" font-family="Times,serif" font-size="14.00">sys&#45;kernel&#45;tracing.mount</text>
<text text-anchor="middle" x="882.5" y="-229.8" font-family="Times,serif" font-size="14.00">(mem: max)</text>
</g>
<!-- cgroup&#45;&gt;sys&#45;kernel&#45;tracing.mount -->
<g id="edge11" class="edge">
<title>cgroup&#45;&gt;sys&#45;kernel&#45;tracing.mount</title>
<path fill="none" stroke="black" d="M750.89,-298.63C773.95,-288.71 805.07,-275.32 831.25,-264.05"/>
<polygon fill="black" stroke="black" points="832.85,-267.17 840.65,-260.01 830.08,-260.74 832.85,-267.17"/>
</g>
<!-- system.slice -->
<g id="node13" class="node">
<title>system.slice</title>
<polygon fill="lightblue" stroke="black" points="2164.5,-260 2060.5,-260 2060.5,-222 2164.5,-222 2164.5,-260"/>
<text text-anchor="middle" x="2112.5" y="-244.8" font-family="Times,serif" font-size="14.00">system.slice</text>
<text text-anchor="middle" x="2112.5" y="-229.8" font-family="Times,serif" font-size="14.00">(mem: max)</text>
</g>
<!-- cgroup&#45;&gt;system.slice -->
<g id="edge13" class="edge">
<title>cgroup&#45;&gt;system.slice</title>
<path fill="none" stroke="black" d="M750.61,-311.31C932.22,-302.07 1808.17,-257.49 2050.34,-245.16"/>
<polygon fill="black" stroke="black" points="2050.57,-248.66 2060.38,-244.65 2050.22,-241.67 2050.57,-248.66"/>
</g>
<!-- dev&#45;hugepages.mount -->
<g id="node31" class="node">
<title>dev&#45;hugepages.mount</title>
<polygon fill="lightblue" stroke="black" points="2356.5,-260 2182.5,-260 2182.5,-222 2356.5,-222 2356.5,-260"/>
<text text-anchor="middle" x="2269.5" y="-244.8" font-family="Times,serif" font-size="14.00">dev&#45;hugepages.mount</text>
<text text-anchor="middle" x="2269.5" y="-229.8" font-family="Times,serif" font-size="14.00">(mem: max)</text>
</g>
<!-- cgroup&#45;&gt;dev&#45;hugepages.mount -->
<g id="edge31" class="edge">
<title>cgroup&#45;&gt;dev&#45;hugepages.mount</title>
<path fill="none" stroke="black" d="M750.56,-312.47C937.39,-309.35 1863.27,-292.57 2172.18,-260.02"/>
<polygon fill="black" stroke="black" points="2172.9,-263.46 2182.46,-258.9 2172.14,-256.5 2172.9,-263.46"/>
</g>
<!-- user&#45;1000.slice -->
<g id="node6" class="node">
<title>user&#45;1000.slice</title>
<polygon fill="lightblue" stroke="black" points="655,-186 530,-186 530,-148 655,-148 655,-186"/>
<text text-anchor="middle" x="592.5" y="-170.8" font-family="Times,serif" font-size="14.00">user&#45;1000.slice</text>
<text text-anchor="middle" x="592.5" y="-155.8" font-family="Times,serif" font-size="14.00">(mem: max)</text>
</g>
<!-- user.slice&#45;&gt;user&#45;1000.slice -->
<g id="edge5" class="edge">
<title>user.slice&#45;&gt;user&#45;1000.slice</title>
<path fill="none" stroke="black" d="M656.8,-221.83C646.31,-213.05 633.55,-202.37 622.18,-192.85"/>
<polygon fill="black" stroke="black" points="624.11,-189.9 614.19,-186.16 619.62,-195.27 624.11,-189.9"/>
</g>
<!-- user@1000.service -->
<g id="node7" class="node">
<title>user@1000.service</title>
<polygon fill="lightblue" stroke="black" points="437.5,-112 283.5,-112 283.5,-74 437.5,-74 437.5,-112"/>
<text text-anchor="middle" x="360.5" y="-96.8" font-family="Times,serif" font-size="14.00">user@1000.service</text>
<text text-anchor="middle" x="360.5" y="-81.8" font-family="Times,serif" font-size="14.00">(mem: max)</text>
</g>
<!-- user&#45;1000.slice&#45;&gt;user@1000.service -->
<g id="edge6" class="edge">
<title>user&#45;1000.slice&#45;&gt;user@1000.service</title>
<path fill="none" stroke="black" d="M534.26,-147.92C502.13,-137.95 462.06,-125.52 428.5,-115.1"/>
<polygon fill="black" stroke="black" points="429.36,-111.7 418.77,-112.08 427.28,-118.39 429.36,-111.7"/>
</g>
<!-- session&#45;3.scope -->
<g id="node10" class="node">
<title>session&#45;3.scope</title>
<polygon fill="lightblue" stroke="black" points="583.5,-112 455.5,-112 455.5,-74 583.5,-74 583.5,-112"/>
<text text-anchor="middle" x="519.5" y="-96.8" font-family="Times,serif" font-size="14.00">session&#45;3.scope</text>
<text text-anchor="middle" x="519.5" y="-81.8" font-family="Times,serif" font-size="14.00">(mem: max)</text>
</g>
<!-- user&#45;1000.slice&#45;&gt;session&#45;3.scope -->
<g id="edge9" class="edge">
<title>user&#45;1000.slice&#45;&gt;session&#45;3.scope</title>
<path fill="none" stroke="black" d="M574.08,-147.83C565.35,-139.22 554.77,-128.79 545.26,-119.4"/>
<polygon fill="black" stroke="black" points="547.49,-116.69 537.92,-112.16 542.58,-121.68 547.49,-116.69"/>
</g>
<!-- session&#45;1.scope -->
<g id="node11" class="node">
<title>session&#45;1.scope</title>
<polygon fill="lightblue" stroke="black" points="729.5,-112 601.5,-112 601.5,-74 729.5,-74 729.5,-112"/>
<text text-anchor="middle" x="665.5" y="-96.8" font-family="Times,serif" font-size="14.00">session&#45;1.scope</text>
<text text-anchor="middle" x="665.5" y="-81.8" font-family="Times,serif" font-size="14.00">(mem: max)</text>
</g>
<!-- user&#45;1000.slice&#45;&gt;session&#45;1.scope -->
<g id="edge10" class="edge">
<title>user&#45;1000.slice&#45;&gt;session&#45;1.scope</title>
<path fill="none" stroke="black" d="M610.92,-147.83C619.65,-139.22 630.23,-128.79 639.74,-119.4"/>
<polygon fill="black" stroke="black" points="642.42,-121.68 647.08,-112.16 637.51,-116.69 642.42,-121.68"/>
</g>
<!-- app.slice -->
<g id="node8" class="node">
<title>app.slice</title>
<polygon fill="lightblue" stroke="black" points="411,-38 310,-38 310,0 411,0 411,-38"/>
<text text-anchor="middle" x="360.5" y="-22.8" font-family="Times,serif" font-size="14.00">app.slice</text>
<text text-anchor="middle" x="360.5" y="-7.8" font-family="Times,serif" font-size="14.00">(mem: max)</text>
</g>
<!-- user@1000.service&#45;&gt;app.slice -->
<g id="edge7" class="edge">
<title>user@1000.service&#45;&gt;app.slice</title>
<path fill="none" stroke="black" d="M360.5,-73.83C360.5,-66.13 360.5,-56.97 360.5,-48.42"/>
<polygon fill="black" stroke="black" points="364,-48.41 360.5,-38.41 357,-48.41 364,-48.41"/>
</g>
<!-- user@1000.service&#45;&gt;init.scope -->
<g id="edge8" class="edge">
<title>user@1000.service&#45;&gt;init.scope</title>
<path fill="none" stroke="black" d="M425.27,-73.92C466,-62.56 518.2,-47.99 558.08,-36.86"/>
<polygon fill="black" stroke="black" points="559.25,-40.17 567.94,-34.11 557.36,-33.43 559.25,-40.17"/>
</g>
<!-- run&#45;qemu.mount -->
<g id="node14" class="node">
<title>run&#45;qemu.mount</title>
<polygon fill="lightblue" stroke="black" points="921.5,-186 785.5,-186 785.5,-148 921.5,-148 921.5,-186"/>
<text text-anchor="middle" x="853.5" y="-170.8" font-family="Times,serif" font-size="14.00">run&#45;qemu.mount</text>
<text text-anchor="middle" x="853.5" y="-155.8" font-family="Times,serif" font-size="14.00">(mem: max)</text>
</g>
<!-- system.slice&#45;&gt;run&#45;qemu.mount -->
<g id="edge14" class="edge">
<title>system.slice&#45;&gt;run&#45;qemu.mount</title>
<path fill="none" stroke="black" d="M2060.21,-238.89C1864.35,-234.54 1173.51,-217.39 931.94,-186.02"/>
<polygon fill="black" stroke="black" points="932.19,-182.52 921.81,-184.66 931.26,-189.46 932.19,-182.52"/>
</g>
<!-- systemd&#45;udevd.service -->
<g id="node15" class="node">
<title>systemd&#45;udevd.service</title>
<polygon fill="lightblue" stroke="black" points="1119.5,-186 939.5,-186 939.5,-148 1119.5,-148 1119.5,-186"/>
<text text-anchor="middle" x="1029.5" y="-170.8" font-family="Times,serif" font-size="14.00">systemd&#45;udevd.service</text>
<text text-anchor="middle" x="1029.5" y="-155.8" font-family="Times,serif" font-size="14.00">(mem: max)</text>
</g>
<!-- system.slice&#45;&gt;systemd&#45;udevd.service -->
<g id="edge15" class="edge">
<title>system.slice&#45;&gt;systemd&#45;udevd.service</title>
<path fill="none" stroke="black" d="M2060.3,-239.43C1914.57,-237.35 1490.94,-227.96 1129.67,-186.05"/>
<polygon fill="black" stroke="black" points="1129.88,-182.55 1119.54,-184.86 1129.06,-189.5 1129.88,-182.55"/>
</g>
<!-- cron.service -->
<g id="node16" class="node">
<title>cron.service</title>
<polygon fill="lightblue" stroke="black" points="1241.5,-186 1137.5,-186 1137.5,-148 1241.5,-148 1241.5,-186"/>
<text text-anchor="middle" x="1189.5" y="-170.8" font-family="Times,serif" font-size="14.00">cron.service</text>
<text text-anchor="middle" x="1189.5" y="-155.8" font-family="Times,serif" font-size="14.00">(mem: max)</text>
</g>
<!-- system.slice&#45;&gt;cron.service -->
<g id="edge16" class="edge">
<title>system.slice&#45;&gt;cron.service</title>
<path fill="none" stroke="black" d="M2060.03,-240.78C1926.23,-241.92 1561.52,-239.56 1251.64,-185.96"/>
<polygon fill="black" stroke="black" points="1252.01,-182.47 1241.56,-184.2 1250.81,-189.37 1252.01,-182.47"/>
</g>
<!-- networkd&#45;dispatcher.service -->
<g id="node17" class="node">
<title>networkd&#45;dispatcher.service</title>
<polygon fill="lightblue" stroke="black" points="1477.5,-186 1259.5,-186 1259.5,-148 1477.5,-148 1477.5,-186"/>
<text text-anchor="middle" x="1368.5" y="-170.8" font-family="Times,serif" font-size="14.00">networkd&#45;dispatcher.service</text>
<text text-anchor="middle" x="1368.5" y="-155.8" font-family="Times,serif" font-size="14.00">(mem: max)</text>
</g>
<!-- system.slice&#45;&gt;networkd&#45;dispatcher.service -->
<g id="edge17" class="edge">
<title>system.slice&#45;&gt;networkd&#45;dispatcher.service</title>
<path fill="none" stroke="black" d="M2060.44,-236.66C1954.59,-229.63 1706.46,-211.87 1487.82,-186.12"/>
<polygon fill="black" stroke="black" points="1488.1,-182.63 1477.76,-184.92 1487.28,-189.58 1488.1,-182.63"/>
</g>
<!-- system&#45;modprobe.slice -->
<g id="node18" class="node">
<title>system&#45;modprobe.slice</title>
<polygon fill="lightblue" stroke="black" points="1677,-186 1496,-186 1496,-148 1677,-148 1677,-186"/>
<text text-anchor="middle" x="1586.5" y="-170.8" font-family="Times,serif" font-size="14.00">system&#45;modprobe.slice</text>
<text text-anchor="middle" x="1586.5" y="-155.8" font-family="Times,serif" font-size="14.00">(mem: max)</text>
</g>
<!-- system.slice&#45;&gt;system&#45;modprobe.slice -->
<g id="edge18" class="edge">
<title>system.slice&#45;&gt;system&#45;modprobe.slice</title>
<path fill="none" stroke="black" d="M2060.24,-234.26C1981.67,-225.44 1828.21,-207.45 1687.34,-186.09"/>
<polygon fill="black" stroke="black" points="1687.63,-182.59 1677.22,-184.54 1686.57,-189.51 1687.63,-182.59"/>
</g>
<!-- systemd&#45;journald.service -->
<g id="node19" class="node">
<title>systemd&#45;journald.service</title>
<polygon fill="lightblue" stroke="black" points="1891.5,-186 1695.5,-186 1695.5,-148 1891.5,-148 1891.5,-186"/>
<text text-anchor="middle" x="1793.5" y="-170.8" font-family="Times,serif" font-size="14.00">systemd&#45;journald.service</text>
<text text-anchor="middle" x="1793.5" y="-155.8" font-family="Times,serif" font-size="14.00">(mem: max)</text>
</g>
<!-- system.slice&#45;&gt;systemd&#45;journald.service -->
<g id="edge19" class="edge">
<title>system.slice&#45;&gt;systemd&#45;journald.service</title>
<path fill="none" stroke="black" d="M2060.18,-228.19C2012.33,-217.39 1940.51,-201.18 1883.46,-188.3"/>
<polygon fill="black" stroke="black" points="1883.87,-184.81 1873.35,-186.02 1882.33,-191.64 1883.87,-184.81"/>
</g>
<!-- unattended&#45;upgrades.service -->
<g id="node20" class="node">
<title>unattended&#45;upgrades.service</title>
<polygon fill="lightblue" stroke="black" points="2135,-186 1910,-186 1910,-148 2135,-148 2135,-186"/>
<text text-anchor="middle" x="2022.5" y="-170.8" font-family="Times,serif" font-size="14.00">unattended&#45;upgrades.service</text>
<text text-anchor="middle" x="2022.5" y="-155.8" font-family="Times,serif" font-size="14.00">(mem: max)</text>
</g>
<!-- system.slice&#45;&gt;unattended&#45;upgrades.service -->
<g id="edge20" class="edge">
<title>system.slice&#45;&gt;unattended&#45;upgrades.service</title>
<path fill="none" stroke="black" d="M2089.79,-221.83C2078.7,-212.96 2065.2,-202.16 2053.21,-192.57"/>
<polygon fill="black" stroke="black" points="2055.2,-189.68 2045.2,-186.16 2050.83,-195.14 2055.2,-189.68"/>
</g>
<!-- ssh.service -->
<g id="node21" class="node">
<title>ssh.service</title>
<polygon fill="lightblue" stroke="black" points="2254,-186 2153,-186 2153,-148 2254,-148 2254,-186"/>
<text text-anchor="middle" x="2203.5" y="-170.8" font-family="Times,serif" font-size="14.00">ssh.service</text>
<text text-anchor="middle" x="2203.5" y="-155.8" font-family="Times,serif" font-size="14.00">(mem: max)</text>
</g>
<!-- system.slice&#45;&gt;ssh.service -->
<g id="edge21" class="edge">
<title>system.slice&#45;&gt;ssh.service</title>
<path fill="none" stroke="black" d="M2135.46,-221.83C2146.67,-212.96 2160.32,-202.16 2172.44,-192.57"/>
<polygon fill="black" stroke="black" points="2174.87,-195.11 2180.54,-186.16 2170.53,-189.62 2174.87,-195.11"/>
</g>
<!-- rsyslog.service -->
<g id="node22" class="node">
<title>rsyslog.service</title>
<polygon fill="lightblue" stroke="black" points="2396.5,-186 2272.5,-186 2272.5,-148 2396.5,-148 2396.5,-186"/>
<text text-anchor="middle" x="2334.5" y="-170.8" font-family="Times,serif" font-size="14.00">rsyslog.service</text>
<text text-anchor="middle" x="2334.5" y="-155.8" font-family="Times,serif" font-size="14.00">(mem: max)</text>
</g>
<!-- system.slice&#45;&gt;rsyslog.service -->
<g id="edge22" class="edge">
<title>system.slice&#45;&gt;rsyslog.service</title>
<path fill="none" stroke="black" d="M2164.55,-223.12C2195.81,-212.98 2235.86,-199.99 2269.23,-189.17"/>
<polygon fill="black" stroke="black" points="2270.46,-192.45 2278.9,-186.03 2268.3,-185.79 2270.46,-192.45"/>
</g>
<!-- console&#45;getty.service -->
<g id="node23" class="node">
<title>console&#45;getty.service</title>
<polygon fill="lightblue" stroke="black" points="2580,-186 2415,-186 2415,-148 2580,-148 2580,-186"/>
<text text-anchor="middle" x="2497.5" y="-170.8" font-family="Times,serif" font-size="14.00">console&#45;getty.service</text>
<text text-anchor="middle" x="2497.5" y="-155.8" font-family="Times,serif" font-size="14.00">(mem: max)</text>
</g>
<!-- system.slice&#45;&gt;console&#45;getty.service -->
<g id="edge23" class="edge">
<title>system.slice&#45;&gt;console&#45;getty.service</title>
<path fill="none" stroke="black" d="M2164.62,-224.12C2167.62,-223.37 2170.59,-222.65 2173.5,-222 2272.24,-199.87 2301,-203.75 2404.83,-186.07"/>
<polygon fill="black" stroke="black" points="2405.52,-189.5 2414.78,-184.34 2404.33,-182.6 2405.52,-189.5"/>
</g>
<!-- snapd.socket -->
<g id="node24" class="node">
<title>snapd.socket</title>
<polygon fill="lightblue" stroke="black" points="2708.5,-186 2598.5,-186 2598.5,-148 2708.5,-148 2708.5,-186"/>
<text text-anchor="middle" x="2653.5" y="-170.8" font-family="Times,serif" font-size="14.00">snapd.socket</text>
<text text-anchor="middle" x="2653.5" y="-155.8" font-family="Times,serif" font-size="14.00">(mem: max)</text>
</g>
<!-- system.slice&#45;&gt;snapd.socket -->
<g id="edge24" class="edge">
<title>system.slice&#45;&gt;snapd.socket</title>
<path fill="none" stroke="black" d="M2164.58,-223.89C2167.58,-223.19 2170.57,-222.55 2173.5,-222 2355.42,-187.63 2406.3,-218.84 2588.5,-186 2588.6,-185.98 2588.7,-185.96 2588.8,-185.95"/>
<polygon fill="black" stroke="black" points="2589.23,-189.43 2598.34,-184.02 2587.85,-182.57 2589.23,-189.43"/>
</g>
<!-- systemd&#45;resolved.service -->
<g id="node25" class="node">
<title>systemd&#45;resolved.service</title>
<polygon fill="lightblue" stroke="black" points="2924,-186 2727,-186 2727,-148 2924,-148 2924,-186"/>
<text text-anchor="middle" x="2825.5" y="-170.8" font-family="Times,serif" font-size="14.00">systemd&#45;resolved.service</text>
<text text-anchor="middle" x="2825.5" y="-155.8" font-family="Times,serif" font-size="14.00">(mem: max)</text>
</g>
<!-- system.slice&#45;&gt;systemd&#45;resolved.service -->
<g id="edge25" class="edge">
<title>system.slice&#45;&gt;systemd&#45;resolved.service</title>
<path fill="none" stroke="black" d="M2164.56,-223.82C2167.57,-223.14 2170.57,-222.52 2173.5,-222 2408.78,-180.03 2475.01,-213.02 2716.81,-185.99"/>
<polygon fill="black" stroke="black" points="2717.43,-189.45 2726.97,-184.84 2716.64,-182.49 2717.43,-189.45"/>
</g>
<!-- dbus.service -->
<g id="node26" class="node">
<title>dbus.service</title>
<polygon fill="lightblue" stroke="black" points="3049,-186 2942,-186 2942,-148 3049,-148 3049,-186"/>
<text text-anchor="middle" x="2995.5" y="-170.8" font-family="Times,serif" font-size="14.00">dbus.service</text>
<text text-anchor="middle" x="2995.5" y="-155.8" font-family="Times,serif" font-size="14.00">(mem: max)</text>
</g>
<!-- system.slice&#45;&gt;dbus.service -->
<g id="edge26" class="edge">
<title>system.slice&#45;&gt;dbus.service</title>
<path fill="none" stroke="black" d="M2164.55,-223.75C2167.56,-223.09 2170.56,-222.5 2173.5,-222 2503.25,-166.36 2597.42,-239.3 2931.77,-185.86"/>
<polygon fill="black" stroke="black" points="2932.42,-189.3 2941.73,-184.25 2931.3,-182.39 2932.42,-189.3"/>
</g>
<!-- systemd&#45;timesyncd.service -->
<g id="node27" class="node">
<title>systemd&#45;timesyncd.service</title>
<polygon fill="lightblue" stroke="black" points="3277.5,-186 3067.5,-186 3067.5,-148 3277.5,-148 3277.5,-186"/>
<text text-anchor="middle" x="3172.5" y="-170.8" font-family="Times,serif" font-size="14.00">systemd&#45;timesyncd.service</text>
<text text-anchor="middle" x="3172.5" y="-155.8" font-family="Times,serif" font-size="14.00">(mem: max)</text>
</g>
<!-- system.slice&#45;&gt;systemd&#45;timesyncd.service -->
<g id="edge27" class="edge">
<title>system.slice&#45;&gt;systemd&#45;timesyncd.service</title>
<path fill="none" stroke="black" d="M2164.55,-223.73C2167.56,-223.07 2170.56,-222.49 2173.5,-222 2558.13,-158.42 2664.36,-223.34 3057.06,-185.95"/>
<polygon fill="black" stroke="black" points="3057.66,-189.41 3067.28,-184.96 3056.99,-182.44 3057.66,-189.41"/>
</g>
<!-- system&#45;getty.slice -->
<g id="node28" class="node">
<title>system&#45;getty.slice</title>
<polygon fill="lightblue" stroke="black" points="3439.5,-186 3295.5,-186 3295.5,-148 3439.5,-148 3439.5,-186"/>
<text text-anchor="middle" x="3367.5" y="-170.8" font-family="Times,serif" font-size="14.00">system&#45;getty.slice</text>
<text text-anchor="middle" x="3367.5" y="-155.8" font-family="Times,serif" font-size="14.00">(mem: max)</text>
</g>
<!-- system.slice&#45;&gt;system&#45;getty.slice -->
<g id="edge28" class="edge">
<title>system.slice&#45;&gt;system&#45;getty.slice</title>
<path fill="none" stroke="black" d="M2164.54,-223.7C2167.56,-223.05 2170.56,-222.47 2173.5,-222 2658.79,-143.86 2793.63,-246.53 3285,-186.04"/>
<polygon fill="black" stroke="black" points="3285.7,-189.48 3295.19,-184.77 3284.84,-182.53 3285.7,-189.48"/>
</g>
<!-- systemd&#45;logind.service -->
<g id="node30" class="node">
<title>systemd&#45;logind.service</title>
<polygon fill="lightblue" stroke="black" points="3639,-186 3458,-186 3458,-148 3639,-148 3639,-186"/>
<text text-anchor="middle" x="3548.5" y="-170.8" font-family="Times,serif" font-size="14.00">systemd&#45;logind.service</text>
<text text-anchor="middle" x="3548.5" y="-155.8" font-family="Times,serif" font-size="14.00">(mem: max)</text>
</g>
<!-- system.slice&#45;&gt;systemd&#45;logind.service -->
<g id="edge30" class="edge">
<title>system.slice&#45;&gt;systemd&#45;logind.service</title>
<path fill="none" stroke="black" d="M2164.54,-223.68C2167.55,-223.04 2170.56,-222.47 2173.5,-222 2450.29,-178.02 3150.6,-214.35 3447.86,-185.93"/>
<polygon fill="black" stroke="black" points="3448.23,-189.41 3457.83,-184.93 3447.54,-182.44 3448.23,-189.41"/>
</g>
<!-- getty@tty1.service -->
<g id="node29" class="node">
<title>getty@tty1.service</title>
<polygon fill="lightblue" stroke="black" points="3444,-112 3291,-112 3291,-74 3444,-74 3444,-112"/>
<text text-anchor="middle" x="3367.5" y="-96.8" font-family="Times,serif" font-size="14.00">getty@tty1.service</text>
<text text-anchor="middle" x="3367.5" y="-81.8" font-family="Times,serif" font-size="14.00">(mem: max)</text>
</g>
<!-- system&#45;getty.slice&#45;&gt;getty@tty1.service -->
<g id="edge29" class="edge">
<title>system&#45;getty.slice&#45;&gt;getty@tty1.service</title>
<path fill="none" stroke="black" d="M3367.5,-147.83C3367.5,-140.13 3367.5,-130.97 3367.5,-122.42"/>
<polygon fill="black" stroke="black" points="3371,-122.41 3367.5,-112.41 3364,-122.41 3371,-122.41"/>
</g>
</g>
</svg>
